# AST/ASF file generated using VICON BodyLanguage
# -----------------------------------------------
:version 1.10
:name VICON
:units
  mass 1.0
  length 0.45
  angle deg
:documentation
   .ast/.asf automatically generated from VICON data using
   VICON BodyBuilder and BodyLanguage model FoxedUp or BRILLIANT.MOD
:root
   order TX TY TZ RX RY RZ
   axis XYZ
   position 0 0 0  
   orientation 0 0 0 
:bonedata
  begin
     id 1 
     name lhipjoint
     direction 0.541323 -0.757556 0.364798 
     length 2.47576 
     axis 0 0 0  XYZ
  end
  begin
     id 2 
     name lfemur
     direction 0.34202 -0.939693 0  
     length 7.46493  
     axis 0 0 20  XYZ
    dof rx ry rz
    limits (-160.0 20.0)
           (-70.0 70.0)
           (-60.0 70.0)
  end
  begin
     id 3 
     name ltibia
     direction 0.34202 -0.939693 0   
     length 7.73805   
     axis 0 0 20   XYZ
    dof rx
    limits (-10.0 170.0)
  end
  begin
     id 4 
     name lfoot
     direction 0.107174 -0.294458 0.949636   
     length 2.25864   
     axis -90 7.62852e-016 20   XYZ
    dof rx rz
    limits (-45.0 90.0)
           (-70.0 20.0)
  end
  begin
     id 5 
     name ltoes
     direction 1.53606e-011 -4.21934e-011 1   
     length 1.12451   
     axis -90 7.62852e-016 20   XYZ
    dof rx
    limits (-90.0 20.0)
  end
  begin
     id 6 
     name rhipjoint
     direction -0.524745 -0.766967 0.36933   
     length 2.44538  
     axis 0 0 0  XYZ 
  end
  begin
     id 7 
     name rfemur
     direction -0.34202 -0.939693 0   
     length 7.61604   
     axis 0 0 -20   XYZ
    dof rx ry rz
    limits (-160.0 20.0)
           (-70.0 70.0)
           (-70.0 60.0)
  end
  begin
     id 8 
     name rtibia
     direction -0.34202 -0.939693 0   
     length 7.61056   
     axis 0 0 -20   XYZ
    dof rx
    limits (-10.0 170.0)
 end
 begin
     id 9 
     name rfoot
     direction -0.12616 -0.346623 0.929482   
     length 2.46372  
     axis -90 -7.62852e-016 -20   XYZ
    dof rx rz
    limits (-45.0 90.0)
           (-20.0 70.0)
  end
  begin
     id 10 
     name rtoes
     direction -1.53531e-011 -4.22004e-011 1   
     length 1.21611   
     axis -90 -7.62852e-016 -20   XYZ
    dof rx
    limits (-90.0 20.0)
  end
  begin
     id 11 
     name lowerback
     direction -0.000778023 0.997293 -0.0735223   
     length 2.06139   
     axis 0 0 0   XYZ
    dof rx ry rz
    limits (-20.0 45.0)
           (-30.0 30.0)
           (-30.0 30.0)
  end
  begin
     id 12 
     name upperback
     direction 0.0222598 0.999722 -0.0078355   
     length 2.06383   
     axis 0 0 0   XYZ
    dof rx ry rz
    limits (-20.0 45.0)
           (-30.0 30.0)
           (-30.0 30.0)
  end
  begin
     id 13 
     name thorax
     direction 0.0219654 0.999405 0.0265994   
     length 2.07163   
     axis 0 0 0   XYZ
    dof rx ry rz
    limits (-20.0 45.0)
           (-30.0 30.0)
           (-30.0 30.0)
  end
  begin
     id 14 
     name lowerneck
     direction 0.0213282 0.988147 0.15202   
     length 1.75969   
     axis 0 0 0   XYZ
    dof rx ry rz
    limits (-20.0 45.0)
           (-30.0 30.0)
           (-30.0 30.0)
  end
  begin
     id 15 
     name upperneck
     direction -0.0546456 0.982624 -0.177379   
     length 1.79244   
     axis 0 0 0   XYZ
    dof rx ry rz
    limits (-20.0 45.0)
           (-30.0 30.0)
           (-30.0 30.0)
  end
  begin
     id 16
     name head
     direction -0.0199987 0.996855 -0.076686  
     length 1.80555  
     axis 0 0 0   XYZ
    dof rx ry rz
    limits (-20.0 45.0)
           (-30.0 30.0)
           (-30.0 30.0)
  end
  begin
     id 17 
     name lclavicle
     direction 0.929565 0.363219 -0.063096  
     length 3.55722  
     axis 0 0 0   XYZ
    dof ry rz
    limits (-20.0 10.0)
           (0.0 20.0)
  end
  begin
     id 18 
     name lhumerus
     direction 1 -4.48993e-011 -2.36203e-027   
     length 4.92785   
     axis 180 -30 -90   XYZ
    dof rx ry rz
    limits (-60.0 90.0)
           (-90.0 90.0)
           (-90.0 90.0)
  end
  begin
     id 19
     name lradius
     direction 1 -4.48947e-011 2.02997e-027   
     length 3.44052   
     axis 180 -30 -90   XYZ
    dof rx
    limits (-10.0 170.0)
  end
  begin
     id 20
     name lwrist
     direction 1 -4.48962e-011 1.45991e-027   
     length 1.72026   
     axis 1.49639e-024 90 90   XYZ
    dof ry
    limits (-180.0 0.0)
 end
  begin
     id 21 
     name lhand
     direction 1 -4.48984e-011 2.91906e-027   
     length 0.654326   
     axis -1.863e-015 90 90   XYZ
    dof rx rz
    limits (-90.0 90.0)
           (-45.0 45.0)
  end
  begin
     id 22 
     name lfingers
     direction 1 -4.48961e-011 5.83968e-027   
     length 0.527534   
     axis -3.72598e-015 90 90   XYZ
    dof rx
    limits (0.0 90.0)
  end
  begin
     id 23
     name lthumb
     direction 0.707107 -6.34963e-011 0.707107   
     length 0.757437   
     axis -90 45 -6.68868e-015   XYZ
    dof rx rz
    limits (-45.0 45.0)
           (-45.0 45.0)
  end
  begin
     id 24 
     name rclavicle
     direction -0.902944 0.422599 -0.0781198   
     length 3.54432  
     axis 0 0 0   XYZ 
    dof ry rz
    limits (-10.0 20.0)
           (-20.0 0.0)
  end
  begin
     id 25 
     name rhumerus
     direction -1 -4.48953e-011 -4.75835e-028  
     length 5.09181   
     axis 180 30 90   XYZ
    dof rx ry rz
    limits (-90.0 60.0)
           (-90.0 90.0)
           (-90.0 90.0)
  end
  begin
     id 26 
     name rradius
     direction -1 -4.48986e-011 -3.25889e-027   
     length 3.49865   
     axis 180 30 90   XYZ
    dof rx
    limits (-10.0 170.0)
  end
  begin
     id 27 
     name rwrist
     direction -1 -4.48963e-011 1.45989e-027   
     length 1.74933   
     axis 1.49639e-024 -90 -90   XYZ
    dof ry
    limits (-180.0 0.0)
  end
  begin
     id 28
     name rhand
     direction -1 -4.49003e-011 2.91844e-027   
     length 0.66641   
     axis -1.863e-015 -90 -90   XYZ
    dof rx rz
    limits (-90.0 90.0)
           (-45.0 45.0)
  end
  begin
     id 29
     name rfingers
     direction -1 -4.48973e-011 5.83886e-027   
     length 0.537277   
     axis -3.72598e-015 -90 -90   XYZ
    dof rx
    limits (0.0 90.0)
  end
  begin
     id 30
     name rthumb
     direction -0.707107 -6.34976e-011 0.707107   
     length 0.771425   
     axis -90 -45 6.68868e-015   XYZ
    dof rx rz
    limits (-45.0 45.0)
           (-45.0 45.0)
  end
:hierarchy
  begin
    root lhipjoint rhipjoint lowerback
    lhipjoint lfemur
    lfemur ltibia
    ltibia lfoot
    lfoot ltoes
    rhipjoint rfemur
    rfemur rtibia
    rtibia rfoot
    rfoot rtoes
    lowerback upperback
    upperback thorax
    thorax lowerneck lclavicle rclavicle
    lowerneck upperneck
    upperneck head
    lclavicle lhumerus
    lhumerus lradius
    lradius lwrist
    lwrist lhand lthumb
    lhand lfingers
    rclavicle rhumerus
    rhumerus rradius
    rradius rwrist
    rwrist rhand rthumb
    rhand rfingers
  end

#!OML:ASF H:\LiuWeirdWalks\Patient Classification 1\Patient 1\Session 1\male.ASF
:FULLY-SPECIFIED
:DEGREES
70
root 0.635427 18.3058 5.69881 1.85187 3.62415 -1.39639
lowerback 1.95631 -0.399662 -0.73645
upperback -0.558728 -0.524251 1.73129
thorax -1.64663 -0.245537 2.20662
lowerneck -22.3981 0.680488 4.69752
upperneck 16.3445 0.507895 -5.10416
head 8.81194 -0.0352983 -2.45005
rclavicle 2.69602e-015 1.98785e-016
rhumerus -21.9847 -30.7266 -0.407139
rradius 21.7801
rwrist 6.03691
rhand -11.7675 -10.6155
rfingers 7.12502
rthumb 14.281 -40.1044
lclavicle 2.69602e-015 1.98785e-016
lhumerus -22.4867 26.4685 6.83012
lradius 21.8111
lwrist -8.89181
lhand -13.9037 4.87171
lfingers 7.12502
lthumb 12.2219 34.4946
rfemur 0.24713 0.85064 14.5862
rtibia 14.6525
rfoot -5.73907 -25.0886
rtoes -4.84978
lfemur 0 0 0
ltibia 0
lfoot 0 0
ltoes 0
71
root 0.635568 18.3061 5.69848 1.85795 3.62478 -1.39951
lowerback 1.95616 -0.393588 -0.727778
upperback -0.560274 -0.515866 1.73357
thorax -1.64855 -0.241394 2.20381
lowerneck -22.3922 0.666228 4.67266
upperneck 16.3786 0.493909 -5.08655
head 8.82177 -0.041363 -2.44229
rclavicle 6.4605e-016 1.19271e-014
rhumerus -21.9867 -30.7981 -0.379253
rradius 21.7476
rwrist 6.1851
rhand -11.7478 -10.4598
rfingers 7.12502
rthumb 14.3001 -39.9473
lclavicle 6.4605e-016 1.19271e-014
lhumerus -22.4726 26.4907 6.84561
lradius 21.7921
lwrist -8.95666
lhand -13.9344 4.86316
lfingers 7.12502
lthumb 12.1924 34.4878
rfemur 0.241685 0.850268 14.5892
rtibia 14.6461
rfoot -5.72946 -25.0882
rtoes -4.8583
lfemur 0 0 0
ltibia 0
lfoot 0 0
ltoes 0
72
root 0.635564 18.3064 5.69813 1.86495 3.62568 -1.40321
lowerback 1.95353 -0.387626 -0.72047
upperback -0.563089 -0.507633 1.7372
thorax -1.65036 -0.2373 2.20317
lowerneck -22.3845 0.648742 4.63895
upperneck 16.4217 0.477319 -5.06251
head 8.83423 -0.0484671 -2.43135
rclavicle 2.36057e-015 -6.55989e-015
rhumerus -21.9905 -30.8788 -0.344037
rradius 21.7131
rwrist 6.35607
rhand -11.7192 -10.2672
rfingers 7.12502
rthumb 14.3276 -39.7528
lclavicle 2.36057e-015 -6.55989e-015
lhumerus -22.4626 26.5187 6.85843
lradius 21.7713
lwrist -9.03413
lhand -13.9682 4.85565
lfingers 7.12502
lthumb 12.1597 34.4823
rfemur 0.233616 0.852978 14.594
rtibia 14.6423
rfoot -5.7213 -25.0923
rtoes -4.86555
lfemur 0 0 0
ltibia 0
lfoot 0 0
ltoes 0
73
root 0.63547 18.3067 5.69777 1.87085 3.62631 -1.40497
lowerback 1.95352 -0.381744 -0.716351
upperback -0.566621 -0.499574 1.74121
thorax -1.65433 -0.233236 2.20473
lowerneck -22.3841 0.632933 4.60336
upperneck 16.4699 0.463535 -5.03879
head 8.84987 -0.0544871 -2.41995
rclavicle 1.60084e-014 -1.37161e-014
rhumerus -21.9975 -31.0052 -0.293348
rradius 21.6707
rwrist 6.59162
rhand -11.6711 -10.0491
rfingers 7.12502
rthumb 14.3739 -39.5314
lclavicle 1.60084e-014 -1.37161e-014
lhumerus -22.4573 26.5205 6.8756
lradius 21.7588
lwrist -9.07955
lhand -14.0018 4.85832
lfingers 7.12502
lthumb 12.1273 34.4868
rfemur 0.226134 0.856664 14.597
rtibia 14.6405
rfoot -5.71543 -25.0966
rtoes -4.87047
lfemur 0 0 0
ltibia 0
lfoot 0 0
ltoes 0
74
root 0.635363 18.3069 5.69749 1.87537 3.62603 -1.40281
lowerback 1.95586 -0.376698 -0.717365
upperback -0.567694 -0.492791 1.74491
thorax -1.657 -0.229786 2.20892
lowerneck -22.3968 0.616678 4.56
upperneck 16.5236 0.449988 -5.0091
head 8.86965 -0.0603655 -2.40537
rclavicle 5.82688e-015 -8.94531e-015
rhumerus -22.0055 -31.154 -0.236759
rradius 21.6288
rwrist 6.86277
rhand -11.6074 -9.84274
rfingers 7.12502
rthumb 14.4353 -39.3207
lclavicle 5.82688e-015 -8.94531e-015
lhumerus -22.4562 26.5325 6.88745
lradius 21.7434
lwrist -9.11926
lhand -14.0279 4.87023
lfingers 7.12502
lthumb 12.1022 34.5002
rfemur 0.219431 0.858724 14.595
rtibia 14.6405
rfoot -5.71162 -25.0986
rtoes -4.87401
lfemur 0 0 0
ltibia 0
lfoot 0 0
ltoes 0
